<?xml version="1.0" encoding="UTF-8"?>
<svg version="1.1" xmlns="http://www.w3.org/2000/svg" width="512" height="512">
<path d="M0 0 C168.96 0 337.92 0 512 0 C512 168.96 512 337.92 512 512 C343.04 512 174.08 512 0 512 C0 343.04 0 174.08 0 0 Z " fill="#FEFEFE" transform="translate(0,0)"/>
<path d="M0 0 C18.48 0 36.96 0 56 0 C56.33 0.66 56.66 1.32 57 2 C58.81812497 2.4356741 58.81812497 2.4356741 61.015625 2.5625 C61.84932617 2.6361377 62.68302734 2.70977539 63.54199219 2.78564453 C64.88245605 2.89175049 64.88245605 2.89175049 66.25 3 C74.23579385 3.70664425 82.09497937 4.64402931 90 6 C90 6.99 90 7.98 90 9 C91.13888672 9.05607422 91.13888672 9.05607422 92.30078125 9.11328125 C93.29464844 9.17902344 94.28851563 9.24476562 95.3125 9.3125 C96.79169922 9.39951172 96.79169922 9.39951172 98.30078125 9.48828125 C101.33148314 10.06284268 102.01690026 10.75823508 104 13 C106.30657014 13.75407101 108.645752 14.411438 111 15 C115.40004284 16.10001071 117.90234248 16.76766172 121 20 C122.98636298 20.70626239 124.98848259 21.36893571 127 22 C129.01470098 22.97004121 131.01922047 23.96244882 133 25 C133 25.66 133 26.32 133 27 C133.61488281 27.10957031 134.22976563 27.21914062 134.86328125 27.33203125 C135.67152344 27.49058594 136.47976563 27.64914063 137.3125 27.8125 C138.11300781 27.96332031 138.91351563 28.11414063 139.73828125 28.26953125 C142.26320524 29.08500756 143.38069734 29.91953671 145 32 C145 32.66 145 33.32 145 34 C145.70125 34.103125 146.4025 34.20625 147.125 34.3125 C151.65559983 35.39590431 156.13285624 37.17714165 159 41 C159 41.99 159 42.98 159 44 C159.94875 44.309375 160.8975 44.61875 161.875 44.9375 C165 46 165 46 167 47 C167.33 47.99 167.66 48.98 168 50 C170.00016466 51.20882096 170.00016466 51.20882096 172 52 C172 52.66 172 53.32 172 54 C172.598125 54.0825 173.19625 54.165 173.8125 54.25 C176.62932273 55.21576779 177.47799132 56.48868567 179 59 C179 59.66 179 60.32 179 61 C179.5775 61.04125 180.155 61.0825 180.75 61.125 C184.0961818 62.42629292 185.07415203 65.05104529 187 68 C189.10039331 69.38868516 189.10039331 69.38868516 191 70 C191 70.66 191 71.32 191 72 C191.66 72 192.32 72 193 72 C193.33 73.98 193.66 75.96 194 78 C195.32 78.33 196.64 78.66 198 79 C198 79.99 198 80.98 198 82 C198.763125 82.165 199.52625 82.33 200.3125 82.5 C203.39990709 84.22320396 203.5395923 84.79601577 204.625 88 C204.82351563 88.70125 205.02203125 89.4025 205.2265625 90.125 C205.94788259 92.36800594 205.94788259 92.36800594 209 94 C209.36442233 95.66014616 209.69972883 97.32706064 210 99 C210.66 99.33 211.32 99.66 212 100 C212.40729228 102.32156597 212.74438677 104.6568787 213 107 C214.32 107.33 215.64 107.66 217 108 C217.309375 109.134375 217.61875 110.26875 217.9375 111.4375 C218.62924531 114.78775099 218.62924531 114.78775099 220 116 C220.16099403 118.02852478 220.3188291 120.05775294 220.42578125 122.08984375 C220.61527344 122.72019531 220.80476563 123.35054688 221 124 C222.32 124.66 223.64 125.32 225 126 C225 128.97 225 131.94 225 135 C226.32 135.66 227.64 136.32 229 137 C229.5390625 139.3125 229.5390625 139.3125 229.625 142 C229.62166384 145.97750951 229.62166384 145.97750951 232 149 C232.31884766 151.61376953 232.31884766 151.61376953 232.4140625 154.8828125 C232.45273437 156.04941406 232.49140625 157.21601563 232.53125 158.41796875 C232.57765625 160.25294922 232.57765625 160.25294922 232.625 162.125 C232.66367187 163.35605469 232.70234375 164.58710938 232.7421875 165.85546875 C232.8366999 168.90349376 232.92225494 171.95150862 233 175 C233.66 175.33 234.32 175.66 235 176 C236.41847006 179.67186238 236.13269484 183.55545319 236.125 187.4375 C236.12757813 188.73558594 236.13015625 190.03367187 236.1328125 191.37109375 C236.02131676 194.41755096 235.8618312 197.08177409 235 200 C234.34 200.33 233.68 200.66 233 201 C232.97494385 201.68102783 232.9498877 202.36205566 232.92407227 203.0637207 C232.80809048 206.14683755 232.68537384 209.22965046 232.5625 212.3125 C232.52318359 213.38435547 232.48386719 214.45621094 232.44335938 215.56054688 C232.40146484 216.58857422 232.35957031 217.61660156 232.31640625 218.67578125 C232.27974854 219.62364502 232.24309082 220.57150879 232.20532227 221.5480957 C232 224 232 224 231 227 C230.34 227 229.68 227 229 227 C229 230.96 229 234.92 229 239 C227.68 239.33 226.36 239.66 225 240 C224.67 243.63 224.34 247.26 224 251 C223.01 251.33 222.02 251.66 221 252 C220.87625 253.093125 220.7525 254.18625 220.625 255.3125 C220 259 220 259 218 262 C217.60986284 263.9896995 217.26797351 265.99019869 217 268 C215.68 268 214.36 268 213 268 C212.67 270.31 212.34 272.62 212 275 C211.34 275 210.68 275 210 275 C209.566875 276.7015625 209.566875 276.7015625 209.125 278.4375 C208.75375 279.613125 208.3825 280.78875 208 282 C207.34 282.33 206.68 282.66 206 283 C205.34444881 285.52733235 205.34444881 285.52733235 205 288 C204.34 288 203.68 288 203 288 C203 289.32 203 290.64 203 292 C202.071875 292.061875 202.071875 292.061875 201.125 292.125 C200.42375 292.41375 199.7225 292.7025 199 293 C198.30741771 294.99117408 197.64252365 296.9921136 197 299 C193.8 302 193.8 302 191 302 C191 303.32 191 304.64 191 306 C189.35 306.33 187.7 306.66 186 307 C186 307.66 186 308.32 186 309 C185.34 309 184.68 309 184 309 C183.896875 309.639375 183.79375 310.27875 183.6875 310.9375 C183.460625 311.618125 183.23375 312.29875 183 313 C182.01 313.33 181.02 313.66 180 314 C179.731875 314.7425 179.46375 315.485 179.1875 316.25 C177.5519808 320.03751814 175.22862171 321.45831908 172 324 C171.67 324.66 171.34 325.32 171 326 C168.9375 326.625 168.9375 326.625 167 327 C166.92652344 327.61101562 166.85304688 328.22203125 166.77734375 328.8515625 C166 331 166 331 164.06640625 332.2734375 C162.82697266 332.81871094 162.82697266 332.81871094 161.5625 333.375 C156.82253372 335.56425061 152.44989132 338.08764738 148.03125 340.86328125 C146 342 146 342 144 342 C144 341.34 144 340.68 144 340 C143.38125 339.773125 142.7625 339.54625 142.125 339.3125 C140 338 140 338 139 335.4375 C138.67 334.633125 138.34 333.82875 138 333 C137.401875 332.89300781 136.80375 332.78601563 136.1875 332.67578125 C132.90433263 331.66151704 131.91097759 329.54181882 130 326.75 C126.7270531 322.01956894 123.55265344 317.47871756 119.375 313.5 C116.99641985 310.99623142 115.8729786 309.31731869 115 306 C116 303 116 303 117.8125 301.90234375 C118.534375 301.58394531 119.25625 301.26554687 120 300.9375 C123.1514696 299.67769923 123.1514696 299.67769923 125 297 C125.99 296.67 126.98 296.34 128 296 C128.33 295.34 128.66 294.68 129 294 C129.99 294 130.98 294 132 294 C132.0928125 293.1028125 132.0928125 293.1028125 132.1875 292.1875 C133.32979642 289.11208657 135.17828061 288.54522728 138 287 C139.01868662 286.01904252 140.02351983 285.02297922 141 284 C141.66 283.67 142.32 283.34 143 283 C143.33 282.01 143.66 281.02 144 280 C146.00121175 277.63493157 146.96799661 277.0106678 150 276 C151.38528789 273.94211377 151.38528789 273.94211377 152.5625 271.5 C154.79639449 267.10180276 154.79639449 267.10180276 157 266 C157.268125 265.2575 157.53625 264.515 157.8125 263.75 C159 261 159 261 161.5 258.5625 C164.21862154 255.77591292 165.04657527 253.72702396 166 250 C166.99 250 167.98 250 169 250 C169.33 247.69 169.66 245.38 170 243 C170.66 243 171.32 243 172 243 C172.33 240.03 172.66 237.06 173 234 C173.99 234 174.98 234 176 234 C176.04898437 233.27554688 176.09796875 232.55109375 176.1484375 231.8046875 C176.22320312 230.83789062 176.29796875 229.87109375 176.375 228.875 C176.44460938 227.92367187 176.51421875 226.97234375 176.5859375 225.9921875 C177 223 177 223 178.00390625 220.0546875 C179.09588556 216.70595095 179.37240742 213.76064598 179.5625 210.25 C179.90102828 204.19794344 179.90102828 204.19794344 181 202 C181.99 202 182.98 202 184 202 C183.93110195 198.06672048 183.84312821 194.13437486 183.73754883 190.2019043 C183.68798681 188.2070937 183.65348867 186.21192743 183.61914062 184.21679688 C183.5659668 182.33637695 183.5659668 182.33637695 183.51171875 180.41796875 C183.48553467 179.26063232 183.45935059 178.1032959 183.43237305 176.91088867 C182.9540106 173.69038304 182.38231423 173.04515027 180 171 C179.55859375 168.0390625 179.55859375 168.0390625 179.4375 164.625 C179.26982742 160.2045412 178.67830231 157.06291717 177 153 C176.7240522 151.07096868 176.51550097 149.1310968 176.375 147.1875 C176.26285156 145.72376953 176.26285156 145.72376953 176.1484375 144.23046875 C176.09945313 143.49441406 176.05046875 142.75835937 176 142 C175.01 141.67 174.02 141.34 173 141 C171.875 136.25 171.875 136.25 173 134 C172.01 133.67 171.02 133.34 170 133 C169.32215008 130.66989091 168.65583207 128.33640176 168 126 C167.01 125.34 166.02 124.68 165 124 C164.63557767 122.33985384 164.30027117 120.67293936 164 119 C163.34 118.67 162.68 118.34 162 118 C161.67 117.01 161.34 116.02 161 115 C160.505 114.54625 160.01 114.0925 159.5 113.625 C157.56690264 111.53081119 157.37547204 109.77849308 157 107 C155.68 106.67 154.36 106.34 153 106 C153 105.34 153 104.68 153 104 C152.34 104 151.68 104 151 104 C150.773125 103.0925 150.54625 102.185 150.3125 101.25 C148.79997567 97.50470166 147.21771118 96.33284061 144 94 C143.34 93.01 142.68 92.02 142 91 C141.01 90.67 140.02 90.34 139 90 C139 89.34 139 88.68 139 88 C138.34 88 137.68 88 137 88 C136.67 87.01 136.34 86.02 136 85 C134.25196191 83.98295966 132.49951953 82.96844402 130.69140625 82.0625 C129 81 129 81 127 78 C124.67328135 76.98470459 122.3396553 75.98511802 120 75 C118.9805881 74.01979625 117.97753644 73.02196992 117 72 C116.13375 71.67 115.2675 71.34 114.375 71 C113.59125 70.67 112.8075 70.34 112 70 C111.67 69.01 111.34 68.02 111 67 C109.35 66.67 107.7 66.34 106 66 C106 65.34 106 64.68 106 64 C105.05125 64.061875 104.1025 64.12375 103.125 64.1875 C102.09375 64.125625 101.0625 64.06375 100 64 C99.34 63.01 98.68 62.02 98 61 C94.44327821 59.7811879 94.44327821 59.7811879 91 59 C91 58.34 91 57.68 91 57 C88.98177083 57.09765625 86.96354167 57.1953125 84.9453125 57.29296875 C84.30335938 57.19628906 83.66140625 57.09960938 83 57 C82.34 56.01 81.68 55.02 81 54 C78.79799254 53.22552225 78.79799254 53.22552225 76.1875 52.875 C75.21167969 52.71644531 74.23585938 52.55789062 73.23046875 52.39453125 C68.74706527 51.84698137 64.26243991 51.60953803 59.75 51.44140625 C57 51 57 51 55.64576721 49.49667358 C53.3821233 47.43809809 51.94601047 47.61974968 48.91772461 47.61181641 C47.88332748 47.60235992 46.84893036 47.59290344 45.78318787 47.5831604 C44.10967003 47.59226944 44.10967003 47.59226944 42.40234375 47.6015625 C41.2571376 47.59869232 40.11193146 47.59582214 38.93202209 47.59286499 C36.51025905 47.59082259 34.08847958 47.59636467 31.66674805 47.60888672 C27.94868317 47.62495168 24.23170303 47.60903549 20.51367188 47.58984375 C18.16406009 47.59182586 15.81444898 47.59566887 13.46484375 47.6015625 C12.34714096 47.59548981 11.22943817 47.58941711 10.0778656 47.5831604 C9.04662064 47.59261688 8.01537567 47.60207336 6.95288086 47.61181641 C6.04259628 47.61420319 5.13231171 47.61658997 4.19444275 47.61904907 C3.47027664 47.74476288 2.74611053 47.87047668 2 48 C1.34 48.99 0.68 49.98 0 51 C-2.87109375 51.44140625 -2.87109375 51.44140625 -6.4375 51.5625 C-11.09248563 51.80699461 -15.64702556 52.12511145 -20.25 52.875 C-21.12140625 53.01679688 -21.9928125 53.15859375 -22.890625 53.3046875 C-25.36538545 53.88012596 -25.36538545 53.88012596 -27 57 C-28.9453125 57.29296875 -28.9453125 57.29296875 -31.125 57.1875 C-32.40375 57.125625 -33.6825 57.06375 -35 57 C-35.33 57.99 -35.66 58.98 -36 60 C-36.94875 60.103125 -37.8975 60.20625 -38.875 60.3125 C-42.29107501 60.68539295 -42.29107501 60.68539295 -44 64 C-47.125 64.1875 -47.125 64.1875 -50 64 C-50 64.66 -50 65.32 -50 66 C-51.65 66.33 -53.3 66.66 -55 67 C-55.495 68.485 -55.495 68.485 -56 70 C-57.6635479 70.67441131 -59.33066942 71.3400321 -61 72 C-62.35432675 73.31200404 -63.68733482 74.64631404 -65 76 C-65.804375 76.474375 -66.60875 76.94875 -67.4375 77.4375 C-70.17455262 78.9684026 -70.17455262 78.9684026 -72.625 81.625 C-75 84 -75 84 -78 85 C-78.66 85.99 -79.32 86.98 -80 88 C-80.66 88 -81.32 88 -82 88 C-82.495 89.485 -82.495 89.485 -83 91 C-83.99 91.33 -84.98 91.66 -86 92 C-87.01351664 93.65848177 -88.01120795 95.32665961 -89 97 C-91.52437888 100.07019053 -92.97555683 101.75502446 -96.875 102.6875 C-101.37052668 101.69848413 -103.78648685 99.17403511 -107 96 C-107.680625 95.38125 -108.36125 94.7625 -109.0625 94.125 C-110.78917761 92.23122455 -112.16160148 90.34522796 -113.625 88.25 C-116.11454185 84.82449229 -118.81894798 82.43451114 -122.1875 79.875 C-126.05327007 76.92495957 -128.26799835 74.65475442 -130 70 C-130.66 69.01 -131.32 68.02 -132 67 C-131.34 66.01 -130.68 65.02 -130 64 C-129.34 64 -128.68 64 -128 64 C-127.731875 63.401875 -127.46375 62.80375 -127.1875 62.1875 C-125.99416367 59.98924887 -124.78998098 58.71838174 -123 57 C-122.54625 56.34 -122.0925 55.68 -121.625 55 C-119.68217262 52.60882783 -117.72875304 51.39936053 -115 50 C-114.34 50 -113.68 50 -113 50 C-112.67 49.01 -112.34 48.02 -112 47 C-111.01 47 -110.02 47 -109 47 C-109 46.34 -109 45.68 -109 45 C-106.03 44.505 -106.03 44.505 -103 44 C-103 43.01 -103 42.02 -103 41 C-100.06377446 37.41227152 -96.71186815 34.77021844 -92.0625 34.125 C-91.051875 34.08375 -90.04125 34.0425 -89 34 C-88.9484375 33.38382813 -88.896875 32.76765625 -88.84375 32.1328125 C-88 30 -88 30 -85.53125 28.8046875 C-84.03078125 28.34449219 -84.03078125 28.34449219 -82.5 27.875 C-80.65089078 27.29834481 -78.81266863 26.68261888 -77 26 C-76.67 25.34 -76.34 24.68 -76 24 C-72.9375 23.375 -72.9375 23.375 -70 23 C-70 22.34 -70 21.68 -70 21 C-68.865625 20.71125 -67.73125 20.4225 -66.5625 20.125 C-65.386875 19.75375 -64.21125 19.3825 -63 19 C-62.67 18.34 -62.34 17.68 -62 17 C-59.67793475 16.29508733 -57.34406932 15.62787571 -55 15 C-54.67 14.67 -54.34 14.34 -54 14 C-51.66702567 13.95907063 -49.33294775 13.95758277 -47 14 C-46.7628125 13.35160156 -46.525625 12.70320313 -46.28125 12.03515625 C-45 10 -45 10 -42.90625 9.49609375 C-41.71515625 9.46708984 -41.71515625 9.46708984 -40.5 9.4375 C-38.13452547 9.43133302 -38.13452547 9.43133302 -36 9 C-35.34 8.01 -34.68 7.02 -34 6 C-32.14331055 5.39990234 -32.14331055 5.39990234 -29.88671875 5.0859375 C-28.64112183 4.90502563 -28.64112183 4.90502563 -27.37036133 4.72045898 C-26.48501709 4.60645752 -25.59967285 4.49245605 -24.6875 4.375 C-23.78990967 4.24875244 -22.89231934 4.12250488 -21.9675293 3.99243164 C-15.73100592 3.14268228 -9.52829871 2.57234289 -3.23828125 2.30859375 C-2.49964844 2.20675781 -1.76101562 2.10492188 -1 2 C-0.67 1.34 -0.34 0.68 0 0 Z " fill="#000000" transform="translate(232,86)"/>
<path d="M0 0 C1.84744823 -0.00134972 3.69489611 -0.00329281 5.54234314 -0.00579834 C9.39943856 -0.0087344 13.25644086 -0.00450057 17.11352539 0.00488281 C22.03811321 0.01628444 26.96248315 0.00970368 31.88706303 -0.00226212 C35.69707356 -0.009515 39.50703308 -0.00717722 43.31704521 -0.00200653 C45.13218652 -0.00067992 46.94733258 -0.00228278 48.76246834 -0.00696564 C51.30539217 -0.01208846 53.84797078 -0.00424097 56.39086914 0.00683594 C57.12826324 0.00278748 57.86565735 -0.00126099 58.62539673 -0.00543213 C66.54277101 0.05792904 73.68226473 1.15189789 79.96484375 6.265625 C85.35555669 11.95582199 86.26527525 17.72550126 86.23950195 25.34716797 C86.24461288 26.13498657 86.24972382 26.92280518 86.25498962 27.73449707 C86.26883172 30.3256806 86.26793281 32.9165965 86.265625 35.5078125 C86.26951512 37.3185333 86.27385045 39.1292532 86.27861023 40.93997192 C86.28606104 44.73100749 86.28578959 48.52194992 86.28051758 52.31298828 C86.27472701 57.15715084 86.29164948 62.00093053 86.31486225 66.84502983 C86.32963661 70.58381355 86.33046622 74.32250588 86.32735252 78.06131363 C86.32786396 79.84658694 86.33306814 81.63186561 86.34316444 83.41711044 C86.35558249 85.92008662 86.3487053 88.42232745 86.3371582 90.92529297 C86.34480194 91.65386505 86.35244568 92.38243713 86.36032104 93.13308716 C86.3007816 99.00941282 85.11029708 104.50097755 81.421875 109.25390625 C80.87917969 109.69089844 80.33648437 110.12789063 79.77734375 110.578125 C79.24753906 111.02800781 78.71773438 111.47789062 78.171875 111.94140625 C71.8191975 115.75301275 66.09463023 116.71006188 58.84594727 116.66967773 C57.97166077 116.67654099 57.09737427 116.68340424 56.19659424 116.69047546 C53.32881064 116.70866074 50.46157845 116.70491787 47.59375 116.69921875 C45.58650028 116.70378445 43.57925213 116.70909118 41.57200623 116.71510315 C37.37337884 116.72401798 33.17494183 116.72162958 28.97631836 116.71166992 C23.61206689 116.70018134 18.24847383 116.72039859 12.88430882 116.74958706 C8.74142831 116.76798631 4.59870451 116.76764918 0.45579338 116.76194954 C-1.52124009 116.76179679 -3.4982845 116.76780282 -5.47527885 116.78024101 C-8.24622063 116.79522011 -11.01595953 116.78442359 -13.78686523 116.76733398 C-14.5928566 116.77700195 -15.39884796 116.78666992 -16.22926331 116.79663086 C-24.07298907 116.69599628 -31.42679076 113.87399049 -37.03515625 108.265625 C-40.01982104 103.44015297 -40.47123181 99.26923705 -40.43920898 93.72509766 C-40.44607224 92.8885112 -40.45293549 92.05192474 -40.46000671 91.18998718 C-40.47824284 88.43637916 -40.47444134 85.68334271 -40.46875 82.9296875 C-40.47331378 81.00686458 -40.47861994 79.08404329 -40.4846344 77.16122437 C-40.49355959 73.13475918 -40.49114962 69.1084924 -40.48120117 65.08203125 C-40.4697204 59.93508753 -40.4899124 54.7888308 -40.51911831 49.64197731 C-40.53751141 45.67155645 -40.53718151 41.7012992 -40.53148079 37.73084641 C-40.53132791 35.83392753 -40.53734438 33.93699734 -40.54977226 32.04011917 C-40.564737 29.38129525 -40.55396502 26.72372744 -40.53686523 24.06494141 C-40.5465332 23.28961563 -40.55620117 22.51428986 -40.56616211 21.71546936 C-40.48398743 15.57912851 -38.87286919 10.12274079 -34.45487976 5.67454338 C-25.30808627 -1.92794095 -11.12215688 -0.02873107 0 0 Z " fill="#000000" transform="translate(69.03515625,207.734375)"/>
<path d="M0 0 C0.90354721 -0.00700928 1.80709442 -0.01401855 2.73802185 -0.02124023 C5.70335283 -0.03874113 8.66771716 -0.02722457 11.63305664 -0.01367188 C13.70756716 -0.01636929 15.78207643 -0.02025379 17.85658264 -0.02526855 C22.19650351 -0.03115311 26.5360942 -0.022635 30.87597656 -0.00390625 C36.42185007 0.01886816 41.96694852 0.00576283 47.51279354 -0.01819611 C51.79466015 -0.03269435 56.07634497 -0.02802938 60.35821724 -0.01768494 C62.40222835 -0.01502804 64.44625629 -0.01825067 66.49024773 -0.02760315 C69.35461607 -0.03783356 72.21775386 -0.02217665 75.08203125 0 C75.91607483 -0.00809692 76.75011841 -0.01619385 77.60943604 -0.02453613 C84.06004529 0.06736049 90.25318668 1.55080837 95.20107937 5.92937469 C99.71232788 11.05764786 100.8496704 15.67182868 100.94042969 22.36474609 C100.9520816 23.03388535 100.96373352 23.7030246 100.97573853 24.3924408 C101.01162248 26.59819108 101.03358421 28.80383042 101.05493164 31.00976562 C101.07622006 32.55853188 101.09818894 34.10728892 101.12080383 35.65603638 C101.1661778 38.90573853 101.20495469 42.15543088 101.23876953 45.40527344 C101.28194908 49.52801222 101.33873834 53.65041631 101.40031719 57.77291679 C101.4470442 60.97662033 101.48759264 64.18037984 101.52628517 67.38418961 C101.54507429 68.90132775 101.56538585 70.41844796 101.58737755 71.93554306 C101.69321648 79.52887204 101.68703711 87.1080037 101.29638672 94.69384766 C101.23792068 95.86464874 101.17945465 97.03544983 101.11921692 98.24172974 C100.3045521 103.43880376 98.29674666 107.41907973 94.23071289 110.76757812 C93.66610352 111.24710937 93.10149414 111.72664063 92.51977539 112.22070312 C87.28819753 115.76536404 82.48291497 115.81927919 76.3684082 115.82397461 C75.44579193 115.83229813 74.52317566 115.84062164 73.57260132 115.84919739 C70.52630372 115.87326717 67.48022046 115.88206646 64.43383789 115.88867188 C62.31020037 115.89764146 60.18656349 115.90676336 58.06292725 115.91603088 C53.61102769 115.93251591 49.15920329 115.94021995 44.70727539 115.94311523 C39.0166701 115.94849426 33.32677624 115.98615715 27.63637161 116.0318594 C23.24901789 116.06167822 18.86183435 116.06883987 14.47438812 116.06984138 C12.37731421 116.07403513 10.2802394 116.08643526 8.18326569 116.10735893 C5.24185185 116.13436897 2.30207233 116.12941872 -0.6394043 116.11694336 C-1.49686249 116.13177765 -2.35432068 116.14661194 -3.23776245 116.16189575 C-10.22789347 116.07793867 -15.86169231 113.79802456 -21.02415085 109.00405025 C-25.64015568 103.78554533 -25.54557601 99.15694816 -25.55541992 92.46362305 C-25.56286728 91.25066307 -25.56286728 91.25066307 -25.57046509 90.01319885 C-25.58505431 87.34147282 -25.59188336 84.66980617 -25.59741211 81.99804688 C-25.6031663 80.13723245 -25.608924 78.27641804 -25.61468506 76.41560364 C-25.62518587 72.5142896 -25.63103454 68.6129961 -25.63452148 64.71166992 C-25.6400038 59.72165005 -25.66403011 54.73190336 -25.69249344 49.74196911 C-25.71115104 45.89772253 -25.71632709 42.05354134 -25.71785736 38.20925331 C-25.72087744 36.37011535 -25.72888414 34.53097836 -25.74204254 32.69188499 C-25.75916821 30.11428634 -25.757207 27.53734985 -25.75073242 24.9597168 C-25.7599472 24.20570587 -25.76916199 23.45169495 -25.77865601 22.67483521 C-25.72937093 16.38599681 -24.25406654 11.80244999 -20.20678711 6.83007812 C-13.80959553 1.57016505 -8.20005109 -0.07941364 0 0 Z " fill="#000000" transform="translate(223.394287109375,362.482421875)"/>
<path d="M0 0 C0.91476105 -0.00686325 1.82952209 -0.0137265 2.77200317 -0.02079773 C5.77988439 -0.03901957 8.78724173 -0.0352348 11.79516602 -0.02954102 C13.89592151 -0.03410499 15.99667552 -0.0394112 18.09742737 -0.04542542 C22.49453813 -0.05434744 26.89146717 -0.05194362 31.28857422 -0.04199219 C36.91189321 -0.03050316 42.53458419 -0.05071797 48.1578207 -0.07990932 C52.49453183 -0.09829144 56.83109301 -0.09797483 61.16783333 -0.0922718 C63.24058984 -0.09211884 65.31335667 -0.09814252 67.38607597 -0.11056328 C70.2890301 -0.12550947 73.19083094 -0.1147694 76.09375 -0.09765625 C76.94231064 -0.10732422 77.79087128 -0.11699219 78.66514587 -0.12695312 C85.84292709 -0.03874392 90.84947476 2.19437473 96.42407227 6.65405273 C100.99971655 12.40629126 102.06082005 18.42021642 101.99975586 25.60498047 C102.00501282 26.38173126 102.01026978 27.15848206 102.01568604 27.95877075 C102.028786 30.50193978 102.02018302 33.04447215 102.01000977 35.58764648 C102.01203359 37.37069314 102.01494759 39.15373899 102.01870728 40.93678284 C102.02311726 44.66464152 102.0167432 48.39228377 102.00268555 52.12011719 C101.98560692 56.87895439 101.99543486 61.63728342 102.01340294 66.39610195 C102.02428735 70.07574737 102.02077294 73.75527401 102.01301956 77.43492317 C102.01102976 79.18866093 102.01343357 80.94240975 102.02045822 82.69613457 C102.08506795 103.35948889 102.08506795 103.35948889 97.30136108 108.92967224 C91.05610771 114.5392614 85.30396978 115.85011811 77.24487305 115.80810547 C75.85832016 115.81840034 75.85832016 115.81840034 74.4437561 115.8289032 C71.39797461 115.8471554 68.35270906 115.84333548 65.30688477 115.83764648 C63.1822798 115.84220942 61.0576763 115.84751533 58.93307495 115.85353088 C54.48291015 115.86245919 50.03292484 115.86004241 45.58276367 115.85009766 C39.89103737 115.83861544 34.19993216 115.85880982 28.50828743 115.88801479 C24.12096241 115.90639753 19.73378561 115.90608004 15.34643173 115.90037727 C13.24855555 115.90022428 11.15066918 115.90625071 9.05282974 115.91866875 C6.11384867 115.93361379 3.17600696 115.92287514 0.23706055 115.90576172 C-0.62242188 115.91542969 -1.4819043 115.92509766 -2.36743164 115.93505859 C-9.64940941 115.84665805 -14.72501277 113.66216542 -20.26342773 108.96655273 C-24.42185025 103.95198441 -24.68627332 99.29573139 -24.67895508 92.96118164 C-24.6856723 92.12313492 -24.69238953 91.2850882 -24.6993103 90.42164612 C-24.71827042 87.65790844 -24.72221344 84.89441386 -24.72436523 82.13061523 C-24.73079435 80.20396831 -24.7375228 78.27732237 -24.74453735 76.35067749 C-24.75650501 72.31408424 -24.76021868 68.27757654 -24.7590332 64.2409668 C-24.75883 59.07711293 -24.78613575 53.91380932 -24.82057762 48.75008583 C-24.84285132 44.77114356 -24.8468706 40.79233364 -24.84581375 36.81333542 C-24.84816886 34.90999835 -24.85698728 33.00665759 -24.87247849 31.10338211 C-24.89214878 28.43710395 -24.88629669 25.77201152 -24.87426758 23.10571289 C-24.88550659 22.32522079 -24.89674561 21.5447287 -24.9083252 20.74058533 C-24.83367286 14.20501114 -22.69289473 10.26477038 -18.57592773 5.15405273 C-12.75249204 0.49530418 -7.18575828 -0.03803001 0 0 Z " fill="#000000" transform="translate(53.388427734375,362.595947265625)"/>
<path d="M0 0 C1.21945312 -0.01224609 2.43890625 -0.02449219 3.6953125 -0.03710938 C4.87609375 -0.03904297 6.056875 -0.04097656 7.2734375 -0.04296875 C8.88484619 -0.04913208 8.88484619 -0.04913208 10.52880859 -0.05541992 C13.86965936 0.2066954 16.53529398 0.90016966 19.625 2.1875 C21.12483085 5.1871617 20.86402055 8.30696961 20.94140625 11.6015625 C20.96218735 12.33120209 20.98296844 13.06084167 21.00437927 13.81259155 C21.06981917 16.14579763 21.12873368 18.47911721 21.1875 20.8125 C21.23069053 22.39324095 21.27430499 23.97397039 21.31835938 25.5546875 C21.42549481 29.43217504 21.52677782 33.30977685 21.625 37.1875 C23.28269409 37.20937378 23.28269409 37.20937378 24.97387695 37.23168945 C29.07235139 37.28964266 33.17027467 37.36687519 37.26831055 37.44995117 C39.04230812 37.48321464 40.8164119 37.51124218 42.59057617 37.53393555 C45.14027176 37.56745602 47.68899292 37.61976865 50.23828125 37.67578125 C51.03212723 37.68217117 51.82597321 37.6885611 52.64387512 37.69514465 C55.59119588 37.77392451 58.01293118 37.84764447 60.62426758 39.29760742 C62.15399962 42.18652075 62.01443272 44.68548953 62.0234375 47.9375 C62.02630768 48.59202148 62.02917786 49.24654297 62.03213501 49.92089844 C62.03417368 51.30274319 62.02865746 52.68461693 62.01611328 54.06640625 C62.00005436 56.1803445 62.01596601 58.29237113 62.03515625 60.40625 C62.03317378 61.75000422 62.02933002 63.09375724 62.0234375 64.4375 C62.02005371 65.65953125 62.01666992 66.8815625 62.01318359 68.140625 C61.625 71.1875 61.625 71.1875 60.62426758 73.07739258 C57.35399326 74.89323545 53.88794308 74.66984144 50.23828125 74.69921875 C49.42127243 74.71716995 48.60426361 74.73512115 47.76249695 74.75361633 C45.15421706 74.80777788 42.54612075 74.84163308 39.9375 74.875 C38.16859421 74.90816799 36.39971267 74.94265717 34.63085938 74.97851562 C30.29570527 75.06350746 25.96060616 75.13029035 21.625 75.1875 C21.6156543 76.1662207 21.60630859 77.14494141 21.59667969 78.15332031 C21.55674542 81.79163791 21.49097866 85.42911291 21.41748047 89.06689453 C21.38929046 90.64002644 21.36806602 92.21329947 21.35400391 93.78662109 C21.33254558 96.05118956 21.28588652 98.31406504 21.234375 100.578125 C21.23314636 101.27931458 21.23191772 101.98050415 21.23065186 102.70294189 C21.13522046 105.89896775 20.7915979 107.93054609 19.04003906 110.63208008 C15.71150928 112.775839 13.31882772 112.68924042 9.375 112.68359375 C8.67987305 112.68504898 7.98474609 112.68650421 7.26855469 112.68800354 C5.80269162 112.6863477 4.33681061 112.67482135 2.87109375 112.65405273 C0.63205853 112.6250913 -1.6046079 112.63344895 -3.84375 112.64648438 C-5.2708448 112.64024644 -6.69793214 112.63185506 -8.125 112.62109375 C-9.41921875 112.61134521 -10.7134375 112.60159668 -12.046875 112.59155273 C-17.11534973 111.97621194 -17.11534973 111.97621194 -19.375 109.1875 C-19.80146001 106.48321712 -19.9798041 104.1662448 -19.984375 101.45703125 C-20.00091125 100.70661057 -20.01744751 99.95618988 -20.03448486 99.18302917 C-20.08303052 96.78860344 -20.10434885 94.39481298 -20.125 92 C-20.15315443 90.37561897 -20.18308112 88.75126761 -20.21484375 87.12695312 C-20.28879039 83.14718773 -20.33832417 79.16777633 -20.375 75.1875 C-21.51042236 75.17291748 -22.64584473 75.15833496 -23.81567383 75.14331055 C-28.02595609 75.08536324 -32.2357015 75.00813059 -36.44555664 74.92504883 C-38.26805919 74.8917826 -40.09066519 74.86375594 -41.91333008 74.84106445 C-44.5325125 74.80754919 -47.15074548 74.75523648 -49.76953125 74.69921875 C-50.58525101 74.69282883 -51.40097076 74.6864389 -52.2414093 74.67985535 C-57.93358111 74.53171258 -57.93358111 74.53171258 -60.08905029 72.85090637 C-62.13642331 70.20258093 -61.7823367 67.72896172 -61.80859375 64.4375 C-61.8138356 63.78297852 -61.81907745 63.12845703 -61.82447815 62.45410156 C-61.83089263 61.07228004 -61.82956866 59.69040387 -61.82104492 58.30859375 C-61.81252749 56.19432476 -61.84130731 54.08275245 -61.87304688 51.96875 C-61.87465888 50.62500081 -61.87408137 49.28124684 -61.87109375 47.9375 C-61.87294678 46.71546875 -61.8747998 45.4934375 -61.87670898 44.234375 C-61.375 41.1875 -61.375 41.1875 -59.87426758 39.29760742 C-56.26734797 37.69551077 -52.7696737 37.7072093 -48.890625 37.67578125 C-48.07503113 37.65783005 -47.25943726 37.63987885 -46.41912842 37.62138367 C-43.82113777 37.5673198 -41.22333042 37.53339818 -38.625 37.5 C-36.8606516 37.46682339 -35.09632737 37.43233341 -33.33203125 37.39648438 C-29.01315317 37.3115958 -24.69432908 37.24476623 -20.375 37.1875 C-20.35518066 36.1680127 -20.33536133 35.14852539 -20.31494141 34.09814453 C-20.23897192 30.32217352 -20.15024191 26.54659227 -20.05761719 22.77099609 C-20.01929148 21.1356576 -19.98444493 19.50023376 -19.953125 17.86474609 C-19.90755158 15.5162909 -19.84954633 13.16842505 -19.7890625 10.8203125 C-19.77751129 10.08692657 -19.76596008 9.35354065 -19.75405884 8.59793091 C-19.60274341 3.41524341 -19.60274341 3.41524341 -17.375 1.1875 C-11.92663998 -0.73154872 -5.68938618 0.00298812 0 0 Z " fill="#000000" transform="translate(263.375,211.8125)"/>
<path d="M0 0 C2.65308738 1.69954646 4.78128779 3.77597987 7 6 C11.51926785 9.90300405 16.25867534 13.37961796 21.10546875 16.8671875 C24.83081587 19.61218012 28.42200496 22.50503125 32.00390625 25.43359375 C33.91494076 27.04095004 33.91494076 27.04095004 36 28 C36 28.66 36 29.32 36 30 C36.556875 30.2475 37.11375 30.495 37.6875 30.75 C40 32 40 32 42.4375 34 C44.87530943 36.11491998 44.87530943 36.11491998 47.75 37 C48.4925 37.33 49.235 37.66 50 38 C50.8125 40.125 50.8125 40.125 51 42 C51.5775 42.0825 52.155 42.165 52.75 42.25 C55.63869579 43.2128986 56.89119161 44.82728832 59 47 C60.65948148 48.01187895 62.32580562 49.0126546 64 50 C64.474375 50.495 64.94875 50.99 65.4375 51.5 C67.05749808 53.21208385 67.05749808 53.21208385 69.875 54.375 C73.33901769 56.1762892 75.27552938 58.2121696 78 61 C82.56699541 64.80279697 87.35050102 68.26617805 92.25 71.625 C101.30099461 77.90298382 101.30099461 77.90298382 103 83 C102.67 83.66 102.34 84.32 102 85 C101.34 85 100.68 85 100 85 C99.67 85.99 99.34 86.98 99 88 C98.34 88 97.68 88 97 88 C96.938125 88.556875 96.87625 89.11375 96.8125 89.6875 C95.66098245 92.96489609 93.4965414 94.6195768 91 97 C90.401875 97.78375 89.80375 98.5675 89.1875 99.375 C84.81220423 104.62535492 79.31826243 108.74539005 74 113 C73.525625 113.598125 73.05125 114.19625 72.5625 114.8125 C71 116 71 116 68.125 115.9375 C64.4898162 114.84694486 62.81362569 113.54566134 60 111 C58.67016861 109.80857963 57.33655272 108.62137535 56 107.4375 C55.319375 106.83421875 54.63875 106.2309375 53.9375 105.609375 C51.76315834 103.80326862 49.42573339 102.4402792 47 101 C47 100.34 47 99.68 47 99 C46.443125 98.896875 45.88625 98.79375 45.3125 98.6875 C40.00421977 97.10936263 36.83345909 93.83345909 33 90 C30.97816179 88.43105355 28.91816723 86.92338056 26.8515625 85.4140625 C24.71041502 83.77884016 22.90272316 81.90272316 21 80 C20.0925 79.46375 19.185 78.9275 18.25 78.375 C17.5075 77.92125 16.765 77.4675 16 77 C16 76.34 16 75.68 16 75 C15.071875 74.71125 14.14375 74.4225 13.1875 74.125 C10 73 10 73 7 71 C7 70.01 7 69.02 7 68 C6.0409375 67.814375 6.0409375 67.814375 5.0625 67.625 C4.381875 67.41875 3.70125 67.2125 3 67 C2.67 66.34 2.34 65.68 2 65 C0.24063735 63.93489565 -1.5716434 63.02623787 -3.40625 62.09765625 C-5 61 -5 61 -6 58 C-7.74867483 56.91568906 -7.74867483 56.91568906 -10 56 C-14.17483128 54.12558596 -16.37362854 52.70079614 -19 49 C-20.31647119 48.30062468 -21.65022151 47.63270867 -23 47 C-24 46 -25 45 -26 44 C-28.94268879 42.01688364 -31.90271524 40.06344658 -34.875 38.125 C-37 36 -37 36 -37.4375 33 C-37.02183669 30.14973733 -36.65018942 28.34500602 -35 26 C-34.01 25.67 -33.02 25.34 -32 25 C-30.79117904 22.99983534 -30.79117904 22.99983534 -30 21 C-29.34 21 -28.68 21 -28 21 C-27.67 20.01 -27.34 19.02 -27 18 C-24.66796984 15.35703248 -23.38326722 14.12775574 -20 13 C-19.67 12.34 -19.34 11.68 -19 11 C-18.34 11 -17.68 11 -17 11 C-17 10.29875 -17 9.5975 -17 8.875 C-14.62557557 2.04852975 -7.00510601 -2.12831188 0 0 Z " fill="#000000" transform="translate(386,35)"/>
<path d="M0 0 C2.98945701 -0.26561378 4.56279226 -0.27785913 7.1328125 1.35546875 C10.77504756 4.70489668 13.59852585 7.63368337 16 12 C19.00698186 15.97728591 22.34142139 19.3839457 26.125 22.625 C32.09522618 27.77016613 32.09522618 27.77016613 34 31 C34.1875 33.9375 34.1875 33.9375 33 37 C30.88356681 39.31122928 28.62769575 41.28866004 26 43 C25.34 43 24.68 43 24 43 C23.67 43.99 23.34 44.98 23 46 C21.25046568 47.03676108 19.49661559 48.06862825 17.703125 49.02734375 C15.79758911 50.11559705 14.51072373 51.420607 13 53 C12.24976563 53.43183594 11.49953125 53.86367187 10.7265625 54.30859375 C7.80875232 56.11863932 5.50263417 58.15378047 3 60.5 C-5 68 -5 68 -9 68 C-9 68.66 -9 69.32 -9 70 C-10.7578125 71.3671875 -10.7578125 71.3671875 -13.125 72.875 C-14.35283203 73.66390625 -14.35283203 73.66390625 -15.60546875 74.46875 C-16.39566406 74.9740625 -17.18585938 75.479375 -18 76 C-19.1475898 76.78911836 -20.29374599 77.5803322 -21.4375 78.375 C-24 80 -24 80 -26 80 C-26.185625 80.7425 -26.37125 81.485 -26.5625 82.25 C-28.6139026 86.17442237 -31.09174018 86.97607974 -35 89 C-35.66 89.66 -36.32 90.32 -37 91 C-37.99 91 -38.98 91 -40 91 C-40.495 92.485 -40.495 92.485 -41 94 C-43.38831103 95.71841891 -45.76212302 97.31480596 -48.25 98.875 C-53.04437165 101.89573127 -57.06163334 104.86645765 -61 109 C-62.95597184 110.39712274 -64.95436401 111.73779907 -67 113 C-67.680625 113.433125 -68.36125 113.86625 -69.0625 114.3125 C-71.8353568 115.29641693 -73.23872629 115.01022209 -76 114 C-78.625 111.625 -78.625 111.625 -81 109 C-81.598125 108.443125 -82.19625 107.88625 -82.8125 107.3125 C-84 106 -84 106 -84 104 C-85.485 103.505 -85.485 103.505 -87 103 C-87 102.34 -87 101.68 -87 101 C-87.89525391 100.87431641 -87.89525391 100.87431641 -88.80859375 100.74609375 C-91.64404409 99.78072652 -92.39790886 98.51721707 -94.0625 96.0625 C-95.98809348 93.24817107 -97.08799013 91.94133991 -100 90 C-100 89.01 -100 88.02 -100 87 C-100.66 87 -101.32 87 -102 87 C-103.38232443 85.37373596 -104.71937515 83.7074998 -106 82 C-103.46439749 75.77624839 -98.85478433 72.80011424 -93 70 C-92.54882812 69.54882812 -92.09765625 69.09765625 -91.6328125 68.6328125 C-88.88522953 65.88522953 -85.58115197 63.89435312 -82.375 61.71875 C-80.01631865 60.12393023 -80.01631865 60.12393023 -78.375 58.28125 C-77 57 -77 57 -74 57 C-73.67 56.01 -73.34 55.02 -73 54 C-72.21625 53.9175 -71.4325 53.835 -70.625 53.75 C-69.75875 53.5025 -68.8925 53.255 -68 53 C-67.29848848 51.6846659 -66.63474075 50.34882408 -66 49 C-64.34928604 47.97388051 -62.68029994 46.97691857 -61 46 C-60.13375 45.13375 -59.2675 44.2675 -58.375 43.375 C-56 41 -56 41 -53 40 C-52.38125 39.38125 -51.7625 38.7625 -51.125 38.125 C-48.9016977 35.9016977 -46.77547506 34.46077634 -44 33 C-43.34 33 -42.68 33 -42 33 C-41.34 31.68 -40.68 30.36 -40 29 C-39.34 29 -38.68 29 -38 29 C-38 28.34 -38 27.68 -38 27 C-31.375 23 -31.375 23 -28 23 C-28 22.01 -28 21.02 -28 20 C-26.390625 18.75390625 -26.390625 18.75390625 -24.25 17.5625 C-21.76184371 16.1088929 -19.92697494 14.92697494 -17.875 12.875 C-15.52851953 10.52851953 -12.96597151 9.45143287 -10 8 C-8.37485532 6.54166642 -8.37485532 6.54166642 -7 5 C-3.44444444 2 -3.44444444 2 0 2 C0 1.34 0 0.68 0 0 Z " fill="#000000" transform="translate(135,36)"/>
  <style>@media (prefers-color-scheme: dark) { :root { filter: none; } }
</style>
</svg>
